<svg width="16" height="16" viewBox="0 0 16 16" fill="none" xmlns="http://www.w3.org/2000/svg">
  <path fill-rule="evenodd" clip-rule="evenodd" d="M8 0C3.58 0 0 3.58 0 8C0 11.54 2.29 14.44 5.47 15.47C5.88 15.54 6.05 15.27 6.05 15.04C6.05 14.83 6.04 14.22 6.03 13.39C3.9 13.91 3.41 12.64 3.41 12.64C3.06 11.78 2.5 11.56 2.5 11.56C1.73 11.11 2.56 11.12 2.56 11.12C3.4 11.19 3.84 12.05 3.84 12.05C4.58 13.33 5.78 12.94 6.23 12.72C6.3 12.16 6.5 11.79 6.72 11.57C4.88 11.35 2.98 10.66 2.98 7.59C2.98 6.72 3.29 6.03 3.77 5.52C3.7 5.3 3.43 4.48 3.83 3.38C3.83 3.38 4.47 3.16 6.05 4.26C6.68 4.07 7.36 3.97 8.04 3.97C8.72 3.97 9.4 4.07 10.03 4.26C11.61 3.16 12.25 3.38 12.25 3.38C12.65 4.48 12.38 5.3 12.31 5.52C12.8 6.03 13.1 6.72 13.1 7.59C13.1 10.67 11.19 11.35 9.36 11.56C9.65 11.82 9.9 12.35 9.9 13.1C9.9 14.13 9.89 14.81 9.89 15.04C9.89 15.27 10.06 15.55 10.47 15.47C13.65 14.44 15.94 11.54 15.94 8C15.94 3.58 12.42 0 8 0Z" fill="white"/>
</svg>
